<svg width="643" height="797" viewBox="0 0 643 797" fill="none" xmlns="http://www.w3.org/2000/svg">
<path d="M136.587 590.983C134.662 586.078 133.162 580.817 132.054 575.592C125.387 541.79 139.343 506.685 167.653 486.512C198.323 464.658 218.958 430.705 224.513 393.426C228.091 369.377 225.247 344.83 216.324 322.104C211.509 309.842 204.897 298.286 196.841 287.862C191.535 281.076 187.181 273.351 183.972 265.176C182.11 260.435 180.576 255.565 179.596 250.666C174.719 227.672 179.413 202.619 192.32 183.588C205.327 164.328 224.422 151.925 247.509 147.767C270.042 143.638 293.331 148.646 312.882 161.916C373.813 202.718 456.421 189.154 501.216 131.185C510.59 119.013 527.455 103.334 554.758 97.8978C597.312 89.493 639.632 112.693 655.488 153.077C657.478 158.145 658.977 163.406 660.085 168.632C663.34 185.092 661.965 201.294 656.158 216.783C644.112 249.063 644.571 284.358 657.089 316.24C658.822 320.654 660.719 325.004 662.942 329.226C680.953 364.046 712.95 389.79 750.754 400.044C768.923 404.988 783.225 417.865 790.093 435.359C791.377 438.629 792.398 442.191 793.127 445.49C796.224 461.068 793.127 476.248 784.366 489.5C775.442 502.817 762.863 511.152 746.958 514.377C739.087 515.958 731.129 515.874 723.475 514.162C686.798 506.296 647.87 513.843 616.815 534.716C585.76 555.588 564.086 588.818 557.393 625.6C552.933 649.807 533.677 677.18 500.203 683.719C475.481 688.519 450.417 680.433 433.378 662.026C389.223 614.449 319.068 603.498 262.729 635.43C254.513 639.977 245.62 643.28 235.986 645.175C193.823 653.615 152.186 630.713 136.587 590.983Z" fill="#E7F8F6"/>
</svg>
