<svg width="30" height="24" viewBox="0 0 30 24" fill="none" xmlns="http://www.w3.org/2000/svg">
<path d="M10.0056 23.8659C21.0119 23.8659 27.0319 14.7473 27.0319 6.8396C27.0319 6.58061 27.0319 6.32277 27.0144 6.06611C28.1856 5.219 29.1965 4.17013 29.9999 2.96861C28.9078 3.45254 27.7492 3.7699 26.5629 3.9101C27.8121 3.16225 28.7471 1.98601 29.1938 0.600271C28.0191 1.2973 26.734 1.78854 25.3939 2.05277C24.4917 1.0934 23.2984 0.458134 21.9988 0.245269C20.6991 0.0324051 19.3655 0.253813 18.2044 0.875231C17.0433 1.49665 16.1193 2.48343 15.5755 3.68288C15.0317 4.88233 14.8983 6.22757 15.1961 7.51044C12.817 7.39117 10.4895 6.77291 8.36483 5.69579C6.24015 4.61868 4.36573 3.10679 2.86325 1.25827C2.09803 2.57563 1.86365 4.13511 2.20785 5.6192C2.55205 7.10329 3.44894 8.4004 4.71592 9.24644C3.76362 9.21821 2.83208 8.96132 1.99992 8.49744C1.99992 8.52194 1.99992 8.54761 1.99992 8.57327C2.0003 9.95486 2.47856 11.2938 3.35358 12.363C4.22861 13.4321 5.44652 14.1657 6.80075 14.4393C5.91977 14.6795 4.99543 14.7147 4.09875 14.5419C4.48114 15.731 5.22559 16.7708 6.228 17.5159C7.23041 18.261 8.44064 18.6742 9.68942 18.6976C7.57044 20.3629 4.95282 21.267 2.25775 21.2643C1.78164 21.2634 1.30599 21.2345 0.833252 21.1779C3.56983 22.9341 6.75398 23.8656 10.0056 23.8613" fill="#979797"/>
</svg>
