<svg width="120" height="115" viewBox="0 0 120 115" fill="none" xmlns="http://www.w3.org/2000/svg">
<path d="M68.2192 112.888V94.3031C68.2195 89.7484 70.0212 85.3803 73.228 82.1597C76.4348 78.9391 80.784 77.1299 85.319 77.1299H100.8C105.335 77.1299 109.684 78.9391 112.891 82.1597C116.097 85.3803 117.899 89.7484 117.899 94.3031V112.888H68.2192Z" fill="#BDE8E3" stroke="#08665D" stroke-width="4" stroke-linecap="round" stroke-linejoin="round"/>
<path d="M117.083 112.888H49.7715V101.424H117.083V112.888Z" fill="#EFEFEF" stroke="#08665D" stroke-width="4" stroke-linecap="round" stroke-linejoin="round"/>
<path d="M2.10278 112.888V94.3031C2.10306 89.7484 3.90475 85.3803 7.11155 82.1597C10.3183 78.9391 14.6676 77.1299 19.2025 77.1299H34.68C39.2149 77.1299 43.5642 78.9391 46.771 82.1597C49.9778 85.3803 51.7795 89.7484 51.7798 94.3031V112.888H2.10278Z" fill="#BDE8E3" stroke="#08665D" stroke-width="4" stroke-linecap="round" stroke-linejoin="round"/>
<path d="M26.7621 75.7255C23.9258 75.7257 21.153 74.8812 18.7946 73.2987C16.4361 71.7162 14.5978 69.4668 13.5122 66.835C12.4266 64.2032 12.1424 61.3072 12.6955 58.5132C13.2487 55.7191 14.6143 53.1526 16.6198 51.1381C18.6252 49.1236 21.1805 47.7516 23.9623 47.1957C26.7441 46.6397 29.6276 46.9247 32.2481 48.0147C34.8687 49.1047 37.1085 50.9506 38.6845 53.3191C40.2605 55.6876 41.1018 58.4723 41.102 61.321C41.0978 65.1397 39.5858 68.8007 36.8975 71.5011C34.2092 74.2015 30.5642 75.7207 26.7621 75.7255Z" fill="#08877F"/>
<path d="M26.7621 49.0865C29.1719 49.0859 31.5277 49.8031 33.5317 51.1472C35.5357 52.4914 37.0978 54.4023 38.0204 56.6381C38.943 58.874 39.1847 61.3345 38.715 63.7084C38.2452 66.0822 37.0851 68.2629 35.3814 69.9745C33.6776 71.6861 31.5067 72.8519 29.1432 73.3243C26.7798 73.7967 24.3299 73.5545 22.1035 72.6285C19.8771 71.7024 17.9741 70.134 16.6352 68.1217C15.2964 66.1093 14.5818 63.7434 14.5818 61.3231C14.5851 58.0788 15.8698 54.9683 18.1539 52.6743C20.438 50.3802 23.535 49.0899 26.7652 49.0865H26.7621ZM26.7652 44.7571C23.5022 44.7571 20.3124 45.7289 17.5993 47.5496C14.8862 49.3703 12.7716 51.9582 11.5228 54.9859C10.2741 58.0137 9.94728 61.3454 10.5838 64.5596C11.2203 67.7739 12.7915 70.7264 15.0987 73.0438C17.406 75.3613 20.3456 76.9395 23.5459 77.579C26.7462 78.2185 30.0634 77.8905 33.0781 76.6365C36.0928 75.3825 38.6696 73.2588 40.4826 70.534C42.2956 67.8092 43.2634 64.6056 43.2636 61.3284C43.2636 56.9336 41.5254 52.7188 38.4314 49.6111C35.3373 46.5034 31.1409 44.7574 26.7652 44.7571V44.7571Z" fill="#08665D"/>
<path d="M93.5524 76.9703C102.157 76.9703 109.133 69.9643 109.133 61.3219C109.133 52.6796 102.157 45.6736 93.5524 45.6736C84.9476 45.6736 77.9719 52.6796 77.9719 61.3219C77.9719 69.9643 84.9476 76.9703 93.5524 76.9703Z" fill="#F4EBC1"/>
<path d="M80.1021 56.2089L87.8151 48.2754H97.9084L103.29 51.5879L108.465 60.3525L105.393 63.7316L96.346 57.3356L86.5376 60.2321L80.1011 61.2585L80.1021 56.2089Z" fill="#08877F"/>
<path d="M81.0894 63.0145C81.0894 63.0145 91.6526 60.6417 96.2125 56.9775C98.806 60.5451 102.673 62.9669 107.004 63.7357" stroke="#08665D" stroke-width="4" stroke-linecap="round" stroke-linejoin="round"/>
<path d="M93.1592 49.0865C95.5689 49.0863 97.9245 49.8038 99.9282 51.1483C101.932 52.4927 103.494 54.4037 104.416 56.6396C105.338 58.8755 105.58 61.3359 105.11 63.7097C104.64 66.0834 103.479 68.2638 101.776 69.9753C100.072 71.6867 97.9009 72.8522 95.5375 73.3244C93.1741 73.7966 90.7244 73.5544 88.4981 72.6283C86.2718 71.7021 84.3689 70.1338 83.0301 68.1215C81.6913 66.1091 80.9768 63.7433 80.9768 61.3231C80.9801 58.079 82.2647 54.9686 84.5485 52.6746C86.8324 50.3806 89.9291 49.0902 93.1592 49.0865V49.0865ZM93.1592 44.7571C89.8962 44.7573 86.7066 45.7293 83.9936 47.5501C81.2806 49.371 79.1661 51.9589 77.9175 54.9867C76.6689 58.0144 76.3423 61.3461 76.9789 64.5603C77.6156 67.7745 79.1869 70.7269 81.4941 73.0442C83.8014 75.3616 86.741 76.9397 89.9413 77.5791C93.1416 78.2185 96.4588 77.8904 99.4734 76.6364C102.488 75.3824 105.065 73.2587 106.878 70.5339C108.691 67.8091 109.658 64.6056 109.659 61.3284C109.659 56.9334 107.92 52.7184 104.826 49.6107C101.732 46.503 97.5351 44.7571 93.1592 44.7571V44.7571Z" fill="#08665D"/>
<path d="M94.2537 92.9968L89.3069 78.2239H99.8786L94.2537 92.9968Z" fill="white"/>
<path d="M100.796 77.1277L94.2578 98.7475" stroke="#08665D" stroke-width="4" stroke-linecap="round" stroke-linejoin="round"/>
<path d="M87.8223 77.1277L94.3608 98.7475" stroke="#08665D" stroke-width="4" stroke-linecap="round" stroke-linejoin="round"/>
<path d="M72.1819 2.11182H31.3818C29.9331 2.116 28.5448 2.69584 27.5204 3.7247C26.496 4.75357 25.9187 6.14783 25.9146 7.60285V31.2269C25.9187 32.6819 26.496 34.0762 27.5204 35.1051C28.5448 36.1339 29.9331 36.7138 31.3818 36.7179H36.113L39.8444 44.4212L49.1344 36.7179H72.1882C73.6369 36.7138 75.0251 36.1339 76.0495 35.1051C77.0739 34.0762 77.6512 32.6819 77.6554 31.2269V7.60285C77.6512 6.14673 77.073 4.75152 76.0472 3.72248C75.0215 2.69344 73.6317 2.11432 72.1819 2.11182V2.11182Z" fill="white" stroke="#08665D" stroke-width="4" stroke-linecap="round" stroke-linejoin="round"/>
<path d="M37.1519 15.0083H67.2015" stroke="#08665D" stroke-width="4" stroke-linecap="round" stroke-linejoin="round"/>
<path d="M37.1519 23.4106H58.3236" stroke="#08665D" stroke-width="4" stroke-linecap="round" stroke-linejoin="round"/>
</svg>
