<svg width="102" height="116" viewBox="0 0 102 116" fill="none" xmlns="http://www.w3.org/2000/svg">
<path d="M61.7874 8.63354H40.1833V17.3832H61.7874V8.63354Z" fill="#CECECE"/>
<path d="M61.7874 8.63354H40.1833V17.3832H61.7874V8.63354Z" fill="#C6C5BD"/>
<path d="M62.5436 7.44546H39.4273C37.3749 7.44546 35.7546 5.82516 35.7546 3.77278C35.7546 1.7204 37.3749 0.100098 39.4273 0.100098H62.5436C64.596 0.100098 66.2163 1.7204 66.2163 3.77278C66.2163 5.71714 64.596 7.44546 62.5436 7.44546Z" fill="#C6C5BD"/>
<path d="M93.0741 26.3226L87.4219 20.6704L82.6099 25.4824L88.2621 31.1346L93.0741 26.3226Z" fill="#C6C5BD"/>
<path d="M94.41 25.9167L87.8208 19.3275C86.4165 17.9233 86.4165 15.5468 87.8208 14.1426C89.225 12.7383 91.6015 12.7383 93.0057 14.1426L99.595 20.7318C100.999 22.136 100.999 24.5125 99.595 25.9167C98.1907 27.321 95.9223 27.321 94.41 25.9167Z" fill="#C6C5BD"/>
<path d="M14.4366 20.6608L8.78442 26.313L13.5964 31.125L19.2486 25.4728L14.4366 20.6608Z" fill="#C6C5BD"/>
<path d="M14.0427 19.2196L7.45349 25.9168C6.04923 27.3211 3.67279 27.3211 2.26853 25.9168C0.864267 24.5126 0.864267 22.1361 2.26853 20.7319L8.74973 14.0346C10.154 12.6304 12.5304 12.6304 13.9347 14.0346C15.447 15.4389 15.447 17.8153 14.0427 19.2196Z" fill="#C6C5BD"/>
<path d="M50.9855 112.117C77.056 112.117 98.1903 90.9827 98.1903 64.9123C98.1903 38.8418 77.056 17.7075 50.9855 17.7075C24.9151 17.7075 3.78076 38.8418 3.78076 64.9123C3.78076 90.9827 24.9151 112.117 50.9855 112.117Z" fill="white"/>
<path d="M50.9855 115.898C22.9002 115.898 0 93.1054 0 64.9122C0 36.827 22.9002 13.9268 50.9855 13.9268C79.0707 13.9268 101.971 36.827 101.971 64.9122C101.971 93.1054 79.0707 115.898 50.9855 115.898ZM50.9855 21.4882C27.005 21.4882 7.5614 41.0398 7.5614 64.9122C7.5614 88.7846 27.005 108.336 50.9855 108.336C74.9659 108.336 94.4095 88.8927 94.4095 64.9122C94.4095 40.9318 74.9659 21.4882 50.9855 21.4882Z" fill="#C6C5BD"/>
<path d="M54.8742 115.79C25.0606 118.058 0 94.4017 0 64.9122C0 61.4556 0.32406 57.9989 1.0802 54.6503L8.42556 56.1626C7.88546 59.0791 7.5614 61.9957 7.5614 64.9122C7.5614 89.8648 28.7333 109.957 54.118 108.228C75.506 106.824 92.7892 89.4328 94.3015 68.0448C96.0298 42.6601 75.9381 21.4882 50.9855 21.4882V13.9268C80.3669 13.9268 104.023 38.9874 101.863 68.8009C99.9185 93.7536 79.8268 113.953 54.8742 115.79Z" fill="#08877F"/>
<path d="M40.2913 83.0594V77.6584H29.9214V72.7975L37.3748 46.7646H42.8838L35.1063 72.7975H40.2913V62.4276H45.4763V72.7975H47.9607V77.6584H45.4763V83.0594H40.2913Z" fill="#08877F"/>
<path d="M70.1049 46.7646V51.6255H59.843V61.4554C60.2751 61.0233 60.9232 60.5912 61.6794 60.2672C62.4355 59.9431 63.2997 59.8351 64.1638 59.8351C65.8922 59.8351 67.4044 60.3752 68.4846 61.4554C69.5648 62.5356 70.1049 64.1559 70.1049 66.3163V75.606C70.1049 76.7942 69.8889 77.8744 69.4568 78.8466C69.0247 79.8188 68.4846 80.5749 67.7285 81.3311C66.9724 81.9792 66.2162 82.5193 65.244 82.8433C64.2719 83.1674 63.2997 83.3834 62.3275 83.3834C61.3553 83.3834 60.3831 83.1674 59.411 82.8433C58.4388 82.5193 57.6826 81.9792 56.9265 81.3311C56.1704 80.6829 55.6302 79.8188 55.1982 78.8466C54.7661 77.8744 54.55 76.7942 54.55 75.606V74.0937H59.735V75.39C59.735 76.2541 59.9511 77.0103 60.4912 77.4423C61.0313 77.9824 61.5714 78.1985 62.4355 78.1985C63.1917 78.1985 63.8398 77.9824 64.2719 77.4423C64.7039 77.0103 64.92 76.2541 64.92 75.498V66.9644C64.92 66.2083 64.7039 65.6682 64.2719 65.1281C63.8398 64.588 63.1917 64.3719 62.5435 64.3719C62.1115 64.3719 61.6794 64.4799 61.4633 64.588C61.1393 64.696 60.9232 64.912 60.7072 65.1281C60.4912 65.3441 60.3831 65.5601 60.2751 65.7762C60.0591 66.1002 59.9511 66.3163 59.9511 66.3163H55.3062V46.7646H70.1049Z" fill="#08877F"/>
</svg>
