<svg width="28" height="28" viewBox="0 0 28 28" fill="none" xmlns="http://www.w3.org/2000/svg">
<path d="M27.2656 8.34159C27.2032 6.92442 26.974 5.95012 26.6457 5.10588C26.307 4.20974 25.786 3.40742 25.1033 2.74046C24.4364 2.06311 23.6288 1.53678 22.743 1.2034C21.8939 0.875105 20.9247 0.645931 19.5075 0.583447C18.0797 0.515672 17.6265 0.5 14.0053 0.5C10.3841 0.5 9.93081 0.515672 8.50834 0.578155C7.09116 0.640639 6.11687 0.870017 5.27283 1.19811C4.37648 1.53678 3.57417 2.05782 2.9072 2.74046C2.22986 3.40742 1.70373 4.21503 1.37015 5.10079C1.04185 5.95012 0.812679 6.91912 0.750195 8.3363C0.68242 9.76406 0.666748 10.2173 0.666748 13.8385C0.666748 17.4597 0.68242 17.913 0.744903 19.3355C0.807387 20.7526 1.03677 21.7269 1.36506 22.5712C1.70373 23.4673 2.22986 24.2696 2.9072 24.9366C3.57417 25.6139 4.38178 26.1403 5.26754 26.4736C6.11687 26.8019 7.08587 27.0311 8.50325 27.0936C9.92552 27.1563 10.379 27.1718 14.0002 27.1718C17.6214 27.1718 18.0746 27.1563 19.4971 27.0936C20.9143 27.0311 21.8886 26.8019 22.7326 26.4736C24.5251 25.7806 25.9423 24.3635 26.6353 22.5712C26.9634 21.7218 27.1928 20.7526 27.2553 19.3355C27.3177 17.913 27.3334 17.4597 27.3334 13.8385C27.3334 10.2173 27.3281 9.76406 27.2656 8.34159ZM24.8638 19.2312C24.8064 20.5338 24.5876 21.2372 24.4052 21.7062C23.9571 22.8681 23.0349 23.7903 21.8729 24.2385C21.404 24.4209 20.6955 24.6396 19.398 24.6968C17.9912 24.7595 17.5693 24.775 14.0106 24.775C10.4518 24.775 10.0246 24.7595 8.62293 24.6968C7.32034 24.6396 6.61694 24.4209 6.14801 24.2385C5.56978 24.0248 5.04345 23.6861 4.61624 23.2432C4.17336 22.8107 3.83469 22.2897 3.62098 21.7115C3.43862 21.2425 3.21982 20.5338 3.16263 19.2365C3.09995 17.8297 3.08448 17.4076 3.08448 13.8489C3.08448 10.2902 3.09995 9.86298 3.16263 8.46147C3.21982 7.15888 3.43862 6.45548 3.62098 5.98655C3.83469 5.40812 4.17336 4.882 4.62153 4.45458C5.05383 4.0117 5.57487 3.67303 6.1533 3.45953C6.62223 3.27716 7.33092 3.05837 8.62822 3.00097C10.035 2.93849 10.4571 2.92282 14.0157 2.92282C17.5797 2.92282 18.0016 2.93849 19.4033 3.00097C20.7059 3.05837 21.4093 3.27716 21.8782 3.45953C22.4564 3.67303 22.9828 4.0117 23.41 4.45458C23.8529 4.88708 24.1915 5.40812 24.4052 5.98655C24.5876 6.45548 24.8064 7.16397 24.8638 8.46147C24.9263 9.86827 24.9419 10.2902 24.9419 13.8489C24.9419 17.4076 24.9263 17.8245 24.8638 19.2312Z" fill="#979797"/>
<path d="M14.0052 6.98682C10.2226 6.98682 7.15356 10.0556 7.15356 13.8384C7.15356 17.6212 10.2226 20.6901 14.0052 20.6901C17.788 20.6901 20.8568 17.6212 20.8568 13.8384C20.8568 10.0556 17.788 6.98682 14.0052 6.98682ZM14.0052 18.2829C11.5512 18.2829 9.56071 16.2926 9.56071 13.8384C9.56071 11.3843 11.5512 9.39396 14.0052 9.39396C16.4594 9.39396 18.4497 11.3843 18.4497 13.8384C18.4497 16.2926 16.4594 18.2829 14.0052 18.2829Z" fill="#979797"/>
<path d="M22.7276 6.71624C22.7276 7.59956 22.0114 8.31578 21.1279 8.31578C20.2445 8.31578 19.5283 7.59956 19.5283 6.71624C19.5283 5.83272 20.2445 5.1167 21.1279 5.1167C22.0114 5.1167 22.7276 5.83272 22.7276 6.71624Z" fill="#979797"/>
</svg>
