<svg width="117" height="106" viewBox="0 0 117 106" fill="none" xmlns="http://www.w3.org/2000/svg">
<path d="M109.1 105.5H7C3.1 105.5 0 102.4 0 98.5V12.2C0 8.29995 3.1 5.19995 7 5.19995H109.1C113 5.19995 116.1 8.29995 116.1 12.2V98.5C116.1 102.4 112.9 105.5 109.1 105.5Z" fill="#D8D7D2"/>
<path d="M116.1 21.7V12.2C116.1 8.29995 113 5.19995 109.1 5.19995H7C3.1 5.19995 0 8.29995 0 12.2V21.7H116.1Z" fill="#08877F"/>
<path d="M96.0999 15.5C93.8999 15.5 92.0999 13.7 92.0999 11.5V4C92.0999 1.8 93.8999 0 96.0999 0C98.2999 0 100.1 1.8 100.1 4V11.5C100.1 13.7 98.2999 15.5 96.0999 15.5Z" fill="#C6C5BD"/>
<path d="M19.8999 15.5C17.6999 15.5 15.8999 13.7 15.8999 11.5V4C15.8999 1.8 17.6999 0 19.8999 0C22.0999 0 23.8999 1.8 23.8999 4V11.5C23.8999 13.7 22.0999 15.5 19.8999 15.5Z" fill="#C6C5BD"/>
<path d="M20.8 33.7H5.80005V48.7H20.8V33.7Z" fill="#EFEFEF"/>
<path d="M21.8 49.7H4.80005V32.7H21.8V49.7ZM6.80005 47.7H19.8V34.7H6.80005V47.7Z" fill="#D8D7D2"/>
<path d="M35.8 33.7H20.8V48.7H35.8V33.7Z" fill="#EFEFEF"/>
<path d="M36.8 49.7H19.8V32.7H36.8V49.7ZM21.8 47.7H34.8V34.7H21.8V47.7Z" fill="#D8D7D2"/>
<path d="M50.8 33.7H35.8V48.7H50.8V33.7Z" fill="#EFEFEF"/>
<path d="M51.8 49.7H34.8V32.7H51.8V49.7ZM36.8 47.7H49.8V34.7H36.8V47.7Z" fill="#D8D7D2"/>
<path d="M65.8001 33.7H50.8V48.7H65.8001V33.7Z" fill="#EFEFEF"/>
<path d="M66.8001 49.7H49.8V32.7H66.8001V49.7ZM51.8 47.7H64.8001V34.7H51.8V47.7Z" fill="#D8D7D2"/>
<path d="M80.8 33.7H65.8V48.7H80.8V33.7Z" fill="#EFEFEF"/>
<path d="M81.8 49.7H64.8V32.7H81.8V49.7ZM66.8 47.7H79.8V34.7H66.8V47.7Z" fill="#D8D7D2"/>
<path d="M95.8 33.7H80.8V48.7H95.8V33.7Z" fill="#EFEFEF"/>
<path d="M96.8 49.7H79.8V32.7H96.8V49.7ZM81.8 47.7H94.8V34.7H81.8V47.7Z" fill="#D8D7D2"/>
<path d="M110.8 33.7H95.8V48.7H110.8V33.7Z" fill="#EFEFEF"/>
<path d="M111.8 49.7H94.8V32.7H111.8V49.7ZM96.8 47.7H109.8V34.7H96.8V47.7Z" fill="#D8D7D2"/>
<path d="M20.8 48.7H5.80005V63.7H20.8V48.7Z" fill="#EFEFEF"/>
<path d="M21.8 64.6999H4.80005V47.7H21.8V64.6999ZM6.80005 62.7H19.8V49.7H6.80005V62.7Z" fill="#D8D7D2"/>
<path d="M35.8 48.7H20.8V63.7H35.8V48.7Z" fill="#EFEFEF"/>
<path d="M36.8 64.6999H19.8V47.7H36.8V64.6999ZM21.8 62.7H34.8V49.7H21.8V62.7Z" fill="#D8D7D2"/>
<path d="M50.8 48.7H35.8V63.7H50.8V48.7Z" fill="#EFEFEF"/>
<path d="M51.8 64.6999H34.8V47.7H51.8V64.6999ZM36.8 62.7H49.8V49.7H36.8V62.7Z" fill="#D8D7D2"/>
<path d="M65.8001 48.7H50.8V63.7H65.8001V48.7Z" fill="#EFEFEF"/>
<path d="M66.8001 64.6999H49.8V47.7H66.8001V64.6999ZM51.8 62.7H64.8001V49.7H51.8V62.7Z" fill="#D8D7D2"/>
<path d="M80.8 48.7H65.8V63.7H80.8V48.7Z" fill="#EFEFEF"/>
<path d="M81.8 64.6999H64.8V47.7H81.8V64.6999ZM66.8 62.7H79.8V49.7H66.8V62.7Z" fill="#D8D7D2"/>
<path d="M95.8 48.7H80.8V63.7H95.8V48.7Z" fill="#EFEFEF"/>
<path d="M96.8 64.6999H79.8V47.7H96.8V64.6999ZM81.8 62.7H94.8V49.7H81.8V62.7Z" fill="#D8D7D2"/>
<path d="M110.8 48.7H95.8V63.7H110.8V48.7Z" fill="#EFEFEF"/>
<path d="M111.8 64.6999H94.8V47.7H111.8V64.6999ZM96.8 62.7H109.8V49.7H96.8V62.7Z" fill="#D8D7D2"/>
<path d="M20.8 63.7H5.80005V78.6999H20.8V63.7Z" fill="#EFEFEF"/>
<path d="M21.8 79.6999H4.80005V62.7H21.8V79.6999ZM6.80005 77.6999H19.8V64.6999H6.80005V77.6999Z" fill="#D8D7D2"/>
<path d="M35.8 63.7H20.8V78.6999H35.8V63.7Z" fill="#EFEFEF"/>
<path d="M36.8 79.6999H19.8V62.7H36.8V79.6999ZM21.8 77.6999H34.8V64.6999H21.8V77.6999Z" fill="#D8D7D2"/>
<path d="M50.8 63.7H35.8V78.6999H50.8V63.7Z" fill="#EFEFEF"/>
<path d="M51.8 79.6999H34.8V62.7H51.8V79.6999ZM36.8 77.6999H49.8V64.6999H36.8V77.6999Z" fill="#D8D7D2"/>
<path d="M65.8001 63.7H50.8V78.6999H65.8001V63.7Z" fill="#EFEFEF"/>
<path d="M66.8001 79.6999H49.8V62.7H66.8001V79.6999ZM51.8 77.6999H64.8001V64.6999H51.8V77.6999Z" fill="#D8D7D2"/>
<path d="M80.8 63.7H65.8V78.6999H80.8V63.7Z" fill="#EFEFEF"/>
<path d="M81.8 79.6999H64.8V62.7H81.8V79.6999ZM66.8 77.6999H79.8V64.6999H66.8V77.6999Z" fill="#D8D7D2"/>
<path d="M95.8 63.7H80.8V78.6999H95.8V63.7Z" fill="#246BEA"/>
<path d="M96.8 79.6999H79.8V62.7H96.8V79.6999ZM81.8 77.6999H94.8V64.6999H81.8V77.6999Z" fill="#D8D7D2"/>
<path d="M110.8 63.7H95.8V78.6999H110.8V63.7Z" fill="#EFEFEF"/>
<path d="M111.8 79.6999H94.8V62.7H111.8V79.6999ZM96.8 77.6999H109.8V64.6999H96.8V77.6999Z" fill="#D8D7D2"/>
<path d="M20.8 78.7H5.80005V93.7H20.8V78.7Z" fill="#EFEFEF"/>
<path d="M21.8 94.7H4.80005V77.7H21.8V94.7ZM6.80005 92.7H19.8V79.7H6.80005V92.7Z" fill="#D8D7D2"/>
<path d="M35.8 78.7H20.8V93.7H35.8V78.7Z" fill="#EFEFEF"/>
<path d="M36.8 94.7H19.8V77.7H36.8V94.7ZM21.8 92.7H34.8V79.7H21.8V92.7Z" fill="#D8D7D2"/>
<path d="M50.8 78.7H35.8V93.7H50.8V78.7Z" fill="#EFEFEF"/>
<path d="M51.8 94.7H34.8V77.7H51.8V94.7ZM36.8 92.7H49.8V79.7H36.8V92.7Z" fill="#D8D7D2"/>
<path d="M65.8001 78.7H50.8V93.7H65.8001V78.7Z" fill="#EFEFEF"/>
<path d="M66.8001 94.7H49.8V77.7H66.8001V94.7ZM51.8 92.7H64.8001V79.7H51.8V92.7Z" fill="#D8D7D2"/>
<path d="M80.8 78.7H65.8V93.7H80.8V78.7Z" fill="#EFEFEF"/>
<path d="M81.8 94.7H64.8V77.7H81.8V94.7ZM66.8 92.7H79.8V79.7H66.8V92.7Z" fill="#D8D7D2"/>
<path d="M95.8 78.7H80.8V93.7H95.8V78.7Z" fill="#EFEFEF"/>
<path d="M96.8 94.7H79.8V77.7H96.8V94.7ZM81.8 92.7H94.8V79.7H81.8V92.7Z" fill="#D8D7D2"/>
<path d="M110.8 78.7H95.8V93.7H110.8V78.7Z" fill="#EFEFEF"/>
<path d="M111.8 94.7H94.8V77.7H111.8V94.7ZM96.8 92.7H109.8V79.7H96.8V92.7Z" fill="#D8D7D2"/>
</svg>
