<svg width="197" height="27" viewBox="0 0 197 27" fill="none" xmlns="http://www.w3.org/2000/svg">
<g clip-path="url(#clip0)">
<path d="M37.77 1.73389H41.3495V10.7752H41.473C42.7073 9.41279 44.1884 8.66967 46.0399 8.66967C47.5211 8.66967 48.8788 9.16508 50.1131 10.2798C51.3474 11.2706 51.9646 12.8807 51.9646 14.8623V26.7522H48.3851V16.1009C48.3851 14.8623 48.0148 13.8715 47.3976 13.2522C46.7805 12.633 45.9165 12.2614 44.929 12.2614C43.9416 12.2614 43.0776 12.633 42.4604 13.2522C41.8432 13.8715 41.473 14.8623 41.473 16.1009V26.7522H37.8935V1.73389H37.77Z" fill="#08877F"/>
<path d="M55.6675 17.8347C55.6675 15.9769 55.7909 14.4907 56.1612 13.4999C56.5315 12.5091 57.0252 11.6421 57.6424 11.0228C58.1361 10.4035 58.8767 9.90814 59.7407 9.41272C60.6047 9.04116 61.7156 8.79346 62.9499 8.79346C64.3077 8.79346 65.542 9.04116 66.406 9.53658C67.27 9.90814 67.8872 10.4035 68.3809 11.0228C69.1215 11.6421 69.6152 12.5091 69.8621 13.4999C70.1089 14.4907 70.2324 15.9769 70.2324 17.8347C70.2324 19.6925 70.1089 21.1788 69.8621 22.1696C69.6152 23.1604 69.1215 24.0274 68.3809 24.7705C68.134 25.0182 67.8872 25.2659 67.5169 25.5136C67.27 25.7613 66.8997 26.0091 66.406 26.2568C65.542 26.7522 64.4311 26.9999 62.9499 26.9999C61.5922 26.9999 60.4813 26.7522 59.6173 26.2568C58.7533 25.7613 58.0127 25.2659 57.5189 24.7705C56.9018 24.0274 56.4081 23.1604 56.0378 22.1696C55.7909 21.1788 55.6675 19.6925 55.6675 17.8347ZM66.7763 17.8347C66.7763 16.5962 66.7763 15.6054 66.6529 15.11C66.5294 14.4907 66.2826 14.1191 65.9123 13.6237C65.6654 13.2522 65.2951 12.8806 64.8014 12.6329C64.1842 12.3852 63.6905 12.2613 62.9499 12.2613C62.3328 12.2613 61.839 12.3852 61.2219 12.6329C60.7282 12.8806 60.3579 13.1283 59.9876 13.6237C59.7407 13.9953 59.4938 14.4907 59.3704 15.11C59.247 15.7292 59.1236 16.5962 59.1236 17.8347C59.1236 19.0733 59.247 19.9402 59.3704 20.5595C59.4938 21.1788 59.7407 21.6742 59.9876 22.0457C60.2344 22.4173 60.7282 22.665 61.2219 22.9127C61.7156 23.1604 62.3328 23.2843 62.9499 23.2843C63.5671 23.2843 64.1842 23.1604 64.678 22.9127C65.1717 22.665 65.542 22.2935 65.7888 22.0457C66.1591 21.5503 66.406 21.0549 66.5294 20.5595C66.6529 19.9402 66.7763 19.0733 66.7763 17.8347Z" fill="#08877F"/>
<path d="M74.3057 8.91744H77.8852V10.7752H78.0086C79.2429 9.41286 80.7241 8.66974 82.699 8.66974C83.9333 8.66974 84.9207 8.91745 85.6613 9.289C86.4019 9.78442 87.0191 10.2798 87.6362 11.0229C88.8705 9.53671 90.8454 8.66974 93.1906 8.79359C94.6718 8.79359 96.0295 9.289 97.2639 10.4037C98.4982 11.3945 99.1153 13.0046 99.1153 14.9863V26.8762H95.5358V16.1009C95.5358 14.8624 95.1655 13.8716 94.5484 13.2523C93.9312 12.633 93.0672 12.2615 92.0797 12.2615C91.0923 12.2615 90.2283 12.633 89.6111 13.2523C88.994 13.8716 88.6237 14.8624 88.6237 16.1009V26.7523H85.0442V16.1009C85.0442 14.8624 84.6739 13.8716 84.0567 13.2523C83.4396 12.633 82.5755 12.2615 81.5881 12.2615C80.6006 12.2615 79.7366 12.633 79.1195 13.2523C78.3789 13.8716 78.132 14.8624 78.132 16.1009V26.7523H74.5525V8.91744H74.3057Z" fill="#08877F"/>
<path d="M106.398 19.1973C106.398 20.6835 106.768 21.6743 107.632 22.4174C108.373 23.1606 109.36 23.5321 110.594 23.5321C112.076 23.5321 113.31 22.9129 114.421 21.7982L117.013 24.0275C115.161 26.0092 113.063 26.8762 110.594 26.8762C109.607 26.8762 108.743 26.7523 107.879 26.5046C107.385 26.3807 107.015 26.133 106.521 25.8853C106.027 25.6376 105.657 25.3899 105.287 25.0184C104.546 24.3991 103.929 23.4083 103.435 22.2936C102.942 21.1789 102.695 19.6927 102.695 17.8349C102.695 16.1009 102.942 14.6147 103.312 13.5C103.806 12.2615 104.299 11.3945 105.04 10.6514C105.781 9.90827 106.521 9.41286 107.385 9.16515C108.249 8.91745 109.113 8.66974 109.977 8.66974C111.952 8.66974 113.68 9.41286 115.161 10.6514C116.643 12.0138 117.26 13.8716 117.383 16.2248V19.1973H106.398ZM113.927 16.2248C113.927 14.8624 113.557 13.7477 112.816 13.1285C112.076 12.5092 111.212 12.1376 110.224 12.1376C109.237 12.1376 108.249 12.5092 107.632 13.1285C107.015 13.8716 106.645 14.8624 106.521 16.2248H113.927Z" fill="#08877F"/>
<path d="M121.95 8.91744H125.529V10.7752H125.653C126.887 9.41286 128.368 8.66974 130.22 8.66974C131.701 8.66974 132.935 9.16515 133.923 10.0321L131.331 13.1285C130.59 12.5092 129.85 12.2615 128.986 12.2615C128.122 12.2615 127.257 12.5092 126.64 13.1285C125.9 13.7477 125.529 14.6147 125.529 15.9771V26.7523H121.95V8.91744Z" fill="#08877F"/>
<path d="M135.034 17.8349C135.034 15.9771 135.157 14.4908 135.527 13.5C135.898 12.5092 136.391 11.6422 137.009 11.0229C137.502 10.4037 138.243 9.90827 139.107 9.41286C139.971 8.91745 141.082 8.79359 142.44 8.66974C143.797 8.66974 145.032 8.91745 145.896 9.41286C146.76 9.90827 147.377 10.4037 147.871 11.0229C148.611 11.6422 149.105 12.5092 149.352 13.5C149.599 14.4908 149.722 15.9771 149.722 17.8349C149.722 19.6927 149.599 21.1789 149.352 22.1697C149.105 23.1606 148.611 24.0275 147.871 24.7707C147.624 25.0184 147.377 25.2661 147.007 25.5138C146.76 25.7615 146.389 26.0092 145.896 26.2569C145.032 26.7523 143.921 27 142.44 27C141.082 27 139.971 26.7523 139.107 26.2569C138.243 25.7615 137.502 25.2661 137.009 24.7707C136.391 24.0275 135.898 23.1606 135.527 22.1697C135.157 21.1789 135.034 19.6927 135.034 17.8349ZM146.019 17.8349C146.019 16.5963 146.019 15.6055 145.896 15.1101C145.772 14.4908 145.525 14.1193 145.155 13.6239C144.908 13.2523 144.538 12.8807 144.044 12.633C143.55 12.3853 142.933 12.2615 142.316 12.2615C141.699 12.2615 141.205 12.3853 140.588 12.633C140.094 12.8807 139.724 13.1285 139.354 13.6239C139.107 13.9954 138.86 14.4908 138.737 15.1101C138.613 15.7294 138.49 16.5963 138.49 17.8349C138.49 19.0734 138.613 19.9404 138.737 20.5596C138.86 21.1789 139.107 21.6743 139.354 22.0459C139.601 22.4174 140.094 22.6652 140.588 22.9129C141.082 23.1606 141.699 23.2844 142.316 23.2844C142.933 23.2844 143.55 23.1606 144.044 22.9129C144.538 22.6652 144.908 22.2936 145.155 22.0459C145.525 21.5505 145.772 21.0551 145.896 20.5596C146.019 19.9404 146.019 19.0734 146.019 17.8349Z" fill="#08877F"/>
<path d="M152.808 17.8349C152.808 15.9771 152.931 14.4908 153.302 13.5C153.672 12.5092 154.166 11.6422 154.783 11.0229C155.276 10.4037 156.017 9.90827 156.881 9.41286C157.745 8.91745 158.856 8.79359 160.214 8.66974C161.571 8.66974 162.806 8.91745 163.67 9.41286C164.534 9.90827 165.151 10.4037 165.645 11.0229C166.385 11.6422 166.879 12.5092 167.126 13.5C167.373 14.4908 167.496 15.9771 167.496 17.8349C167.496 19.6927 167.373 21.1789 167.126 22.1697C166.879 23.1606 166.385 24.0275 165.645 24.7707C165.398 25.0184 165.151 25.2661 164.781 25.5138C164.534 25.7615 164.164 26.0092 163.67 26.2569C162.806 26.7523 161.695 27 160.214 27C158.856 27 157.745 26.7523 156.881 26.2569C156.017 25.7615 155.276 25.2661 154.783 24.7707C154.166 24.0275 153.672 23.1606 153.302 22.1697C152.931 21.1789 152.808 19.6927 152.808 17.8349ZM163.917 17.8349C163.917 16.5963 163.917 15.6055 163.793 15.1101C163.67 14.4908 163.423 14.1193 163.053 13.6239C162.806 13.2523 162.435 12.8807 161.942 12.633C161.448 12.3853 160.831 12.2615 160.214 12.2615C159.597 12.2615 159.103 12.3853 158.486 12.633C157.992 12.8807 157.622 13.1285 157.251 13.6239C157.005 13.9954 156.758 14.4908 156.634 15.1101C156.511 15.7294 156.387 16.5963 156.387 17.8349C156.387 19.0734 156.511 19.9404 156.634 20.5596C156.758 21.1789 157.005 21.6743 157.251 22.0459C157.498 22.4174 157.992 22.6652 158.486 22.9129C158.979 23.1606 159.597 23.2844 160.214 23.2844C160.831 23.2844 161.448 23.1606 161.942 22.9129C162.435 22.6652 162.806 22.2936 163.053 22.0459C163.423 21.5505 163.67 21.0551 163.793 20.5596C163.793 19.9404 163.917 19.0734 163.917 17.8349Z" fill="#08877F"/>
<path d="M171.446 8.91744H175.026V10.7752H175.149C176.383 9.41286 177.864 8.66974 179.839 8.66974C181.074 8.66974 182.061 8.91745 182.802 9.289C183.542 9.78442 184.159 10.2798 184.777 11.0229C186.134 9.41286 187.986 8.66974 190.331 8.66974C191.812 8.66974 193.17 9.16515 194.404 10.2798C195.639 11.2707 196.256 12.8807 196.256 14.8624V26.7523H192.553V16.1009C192.553 14.8624 192.182 13.8716 191.565 13.2523C190.948 12.633 190.084 12.2615 189.097 12.2615C188.109 12.2615 187.245 12.633 186.628 13.2523C186.011 13.8716 185.641 14.8624 185.641 16.1009V26.7523H182.061V16.1009C182.061 14.8624 181.691 13.8716 181.074 13.2523C180.457 12.633 179.593 12.2615 178.605 12.2615C177.618 12.2615 176.754 12.633 176.136 13.2523C175.396 13.8716 175.149 14.8624 175.149 16.1009V26.7523H171.569V8.91744H171.446Z" fill="#08877F"/>
<path d="M25.9205 7.80275L12.9603 0L0 7.80275V15.2339V18.578V20.3119V26.7523H2.83892V20.3119V18.578C2.83892 17.8349 3.08578 17.3395 3.5795 16.844C4.07323 16.3486 4.81381 16.2248 5.5544 16.2248C6.78871 16.2248 8.26988 16.844 8.26988 18.578V26.7523H11.1088V18.578C11.1088 15.6055 8.76361 13.3761 5.67783 13.3761C4.69038 13.3761 3.82636 13.6239 2.96235 13.9954V9.7844L12.9603 3.7156L23.0816 9.7844V24.0275H14.318L12.7134 26.8762H25.9205V11.5183V7.80275Z" fill="#08877F"/>
</g>
<defs>
<clipPath id="clip0">
<rect width="196.132" height="27" fill="white"/>
</clipPath>
</defs>
</svg>
