<svg id="レイヤー_1" data-name="レイヤー 1" xmlns="http://www.w3.org/2000/svg" xmlns:xlink="http://www.w3.org/1999/xlink" viewBox="0 0 764 406"><defs><style>.cls-1,.cls-5{fill:#fff;}.cls-1,.cls-2{fill-rule:evenodd;}.cls-2{fill:#f4fffe;}.cls-3{mask:url(#mask);}.cls-4{fill:#e5e4e0;}.cls-6{fill:none;stroke:#e5e4e0;}</style><mask id="mask" x="71.43" y="0.5" width="622.38" height="398.53" maskUnits="userSpaceOnUse"><g id="path-1-inside-1"><path class="cls-1" d="M676.81,398c8.84,0,16-6.62,16-14.8V16.3c0-8.17-7.16-14.8-16-14.8H88.43c-8.84,0-16,6.63-16,14.8V383.23c0,8.18,7.16,14.8,16,14.8ZM86.41,30.47H679.83v334.6H86.41Z"/></g></mask></defs><title>アートボード 1</title><path class="cls-2" d="M676.81,398c8.84,0,16-6.62,16-14.8V16.3c0-8.17-7.16-14.8-16-14.8H88.43c-8.84,0-16,6.63-16,14.8V383.23c0,8.18,7.16,14.8,16,14.8ZM86.41,30.47H679.83v334.6H86.41Z"/><g class="cls-3"><path class="cls-4" d="M679.83,30.47h1v-1h-1Zm-593.42,0v-1h-1v1Zm593.42,334.6v1h1v-1Zm-593.42,0h-1v1h1Zm605.4,18.16c0,7.55-6.64,13.8-15,13.8v2c9.32,0,17-7,17-15.8Zm0-366.93V383.23h2V16.3Zm-15-13.8c8.36,0,15,6.25,15,13.8h2c0-8.8-7.68-15.8-17-15.8ZM88.43,2.5H676.81V.5H88.43Zm-15,13.8c0-7.55,6.64-13.8,15-13.8V.5c-9.32,0-17,7-17,15.8Zm0,366.93V16.3h-2V383.23Zm15,13.8c-8.36,0-15-6.25-15-13.8h-2c0,8.8,7.68,15.8,17,15.8Zm588.38,0H88.43v2H676.81Zm3-367.56H86.41v2H679.83Zm1,335.6V30.47h-2v334.6Zm-594.42,1H679.83v-2H86.41Zm-1-335.6v334.6h2V30.47Z"/></g><path class="cls-5" d="M.5,393.23s17.29,7.16,48.44,10c9,.92,12.34,1.22,40.37,1.22H683.6s67.33-2.13,79.82-11.27c0-2.44-2.81-2.21-2.81-2.21H1.57A3,3,0,0,0,.5,393.23Z"/><path class="cls-5" d="M763.5,388.81H.5v4.42h763Z"/><path class="cls-6" d="M436.84,394.4H327.57l-.71,0c-.55,0-1.13-.07-1.38-.1a11.94,11.94,0,0,1-1.66-.44l-.68-.22c-.47-.15-1-.32-1.47-.47h0a12.17,12.17,0,0,0-2.43-.35c-.33,0-.63,0-.87,0v-3.43h128v3.43c-.24,0-.54,0-.88,0a12,12,0,0,0-2.42.35h0c-.51.15-1,.32-1.47.47l-.69.22a11.59,11.59,0,0,1-1.66.44c-.24,0-.82.07-1.37.1l-.71,0h-.28Z"/><path class="cls-6" d="M1,389.31H762.92V393a25.16,25.16,0,0,1-6.66,2.89,98,98,0,0,1-10.67,2.49c-8.05,1.48-17.62,2.61-26.81,3.44s-18,1.39-24.49,1.73c-3.25.18-5.92.29-7.79.37l-2.15.08-.57,0H386.34v0h-297c-28,0-31.36-.3-40.32-1.22h0a224.16,224.16,0,0,1-35.82-6.09c-4.1-1.08-7.22-2.06-9.32-2.77-1.05-.36-1.84-.65-2.37-.84L1,392.89Z"/></svg>